<?xml version="1.0" encoding="UTF-8"?>
<!DOCTYPE svg PUBLIC "-//W3C//DTD SVG 1.1//EN" "http://www.w3.org/Graphics/SVG/1.1/DTD/svg11.dtd">
<svg xmlns="http://www.w3.org/2000/svg" version="1.1" width="58px" height="58px" style="shape-rendering:geometricPrecision; text-rendering:geometricPrecision; image-rendering:optimizeQuality; fill-rule:evenodd; clip-rule:evenodd" xmlns:xlink="http://www.w3.org/1999/xlink">
<g><path style="opacity:1" fill="#d6232d" d="M 50.5,-0.5 C 52.5,-0.5 54.5,-0.5 56.5,-0.5C 56.5,0.166667 56.8333,0.5 57.5,0.5C 57.5,2.5 57.5,4.5 57.5,6.5C 55.5,8.16667 53.5,9.83333 51.5,11.5C 51.41,9.3037 51.0767,7.13703 50.5,5C 50.3158,3.62439 49.6491,2.79106 48.5,2.5C 49.1667,1.5 49.8333,0.5 50.5,-0.5 Z"/></g>
<g><path style="opacity:1" fill="#ce2936" d="M 0.5,-0.5 C 2.5,-0.5 4.5,-0.5 6.5,-0.5C 7.5,0.833333 8.5,2.16667 9.5,3.5C 7.18062,2.83303 4.84729,2.66636 2.5,3C 1.02674,3.70956 0.360072,4.87623 0.5,6.5C 0.166667,6.5 -0.166667,6.5 -0.5,6.5C -0.5,4.5 -0.5,2.5 -0.5,0.5C 0.166667,0.5 0.5,0.166667 0.5,-0.5 Z"/></g>
<g><path style="opacity:1" fill="#e01b23" d="M 9.5,3.5 C 11.8333,5.16667 13.8333,7.16667 15.5,9.5C 13.3537,9.12181 11.187,8.78847 9,8.5C 6.99189,8.30684 5.49189,8.9735 4.5,10.5C 2.83333,9.5 1.5,8.16667 0.5,6.5C 0.360072,4.87623 1.02674,3.70956 2.5,3C 4.84729,2.66636 7.18062,2.83303 9.5,3.5 Z"/></g>
<g><path style="opacity:1" fill="#ed1317" d="M 48.5,2.5 C 49.6491,2.79106 50.3158,3.62439 50.5,5C 51.0767,7.13703 51.41,9.3037 51.5,11.5C 45.7731,17.2224 40.4397,23.2224 35.5,29.5C 34.8761,29.0831 34.5427,28.4164 34.5,27.5C 35.997,23.8383 37.497,20.1717 39,16.5C 39.765,14.9343 39.5983,13.6009 38.5,12.5C 41.5,8.83333 44.8333,5.5 48.5,2.5 Z"/></g>
<g><path style="opacity:1" fill="#f8070a" d="M 38.5,12.5 C 39.5983,13.6009 39.765,14.9343 39,16.5C 37.497,20.1717 35.997,23.8383 34.5,27.5C 34.5427,28.4164 34.8761,29.0831 35.5,29.5C 42.8333,36.5 50.1667,43.5 57.5,50.5C 57.5,52.5 57.5,54.5 57.5,56.5C 56.8333,56.5 56.5,56.8333 56.5,57.5C 54.5,57.5 52.5,57.5 50.5,57.5C 43.521,49.8543 36.1877,42.521 28.5,35.5C 20.8123,42.521 13.479,49.8543 6.5,57.5C 4.5,57.5 2.5,57.5 0.5,57.5C 0.5,56.8333 0.166667,56.5 -0.5,56.5C -0.5,54.5 -0.5,52.5 -0.5,50.5C 7.14566,43.521 14.479,36.1877 21.5,28.5C 18.4778,25.1467 15.4778,21.8134 12.5,18.5C 12.9169,17.8761 13.5836,17.5427 14.5,17.5C 18.3892,18.4442 22.0559,19.9442 25.5,22C 27.0657,22.765 28.3991,22.5983 29.5,21.5C 32.1667,18.1667 35.1667,15.1667 38.5,12.5 Z"/></g>
<g><path style="opacity:1" fill="#ef1115" d="M 15.5,9.5 C 19.8918,13.8972 24.5584,17.8972 29.5,21.5C 28.3991,22.5983 27.0657,22.765 25.5,22C 22.0559,19.9442 18.3892,18.4442 14.5,17.5C 13.5836,17.5427 12.9169,17.8761 12.5,18.5C 9.5,16.1667 6.83333,13.5 4.5,10.5C 5.49189,8.9735 6.99189,8.30684 9,8.5C 11.187,8.78847 13.3537,9.12181 15.5,9.5 Z"/></g>
</svg>
