<?xml version="1.0" encoding="UTF-8"?>
<!DOCTYPE svg PUBLIC "-//W3C//DTD SVG 1.1//EN" "http://www.w3.org/Graphics/SVG/1.1/DTD/svg11.dtd">
<svg xmlns="http://www.w3.org/2000/svg" version="1.1" width="4663px" height="368px" style="shape-rendering:geometricPrecision; text-rendering:geometricPrecision; image-rendering:optimizeQuality; fill-rule:evenodd; clip-rule:evenodd" xmlns:xlink="http://www.w3.org/1999/xlink">
<g><path style="opacity:0.886" fill="#ff0f08" d="M 161.5,-0.5 C 164.833,-0.5 168.167,-0.5 171.5,-0.5C 173.971,3.35619 174.138,7.35619 172,11.5C 151.813,55.7071 132.313,100.207 113.5,145C 113.833,145.5 114.167,146 114.5,146.5C 140.714,140.224 167.214,135.557 194,132.5C 195.107,132.585 196.107,132.919 197,133.5C 197.667,137.833 197.667,142.167 197,146.5C 169.147,174.009 143.147,203.009 119,233.5C 96.8821,256.612 75.8821,280.612 56,305.5C 40.1994,322.969 24.0327,340.135 7.5,357C 4.67831,357.428 2.01165,356.928 -0.5,355.5C -0.5,352.167 -0.5,348.833 -0.5,345.5C 7.89242,331.727 16.0591,317.727 24,303.5C 40.5292,270.273 57.6959,237.439 75.5,205C 51.3709,207.533 27.2042,210.367 3,213.5C 2.22797,213.355 1.5613,213.022 1,212.5C 0.333333,208.167 0.333333,203.833 1,199.5C 45.521,143.8 90.521,88.4665 136,33.5C 144.717,22.2896 153.217,10.9563 161.5,-0.5 Z"/></g>
<g><path style="opacity:0.991" fill="#fe0000" d="M 309.5,2.5 C 377.837,2.1667 446.17,2.50003 514.5,3.5C 493.641,46.1394 470.974,87.6394 446.5,128C 471.5,128.667 496.5,128.667 521.5,128C 557.993,108.588 594.326,88.9209 630.5,69C 642.627,47.2469 654.627,25.4136 666.5,3.5C 716.167,2.16667 765.833,2.16667 815.5,3.5C 795.942,42.9621 774.608,81.2954 751.5,118.5C 718.181,135.825 685.181,153.658 652.5,172C 649.102,173.916 645.435,174.916 641.5,175C 654.703,193.238 667.537,211.738 680,230.5C 681.068,233.871 682.235,237.204 683.5,240.5C 663.5,276.5 643.5,312.5 623.5,348.5C 573.833,349.833 524.167,349.833 474.5,348.5C 484.87,326.925 495.87,305.758 507.5,285C 506.536,280.308 505.036,275.808 503,271.5C 493.246,256.992 483.246,242.659 473,228.5C 471.748,225.986 471.248,223.32 471.5,220.5C 444.831,220.333 418.165,220.5 391.5,221C 388.925,229.057 385.758,236.89 382,244.5C 362.293,279.415 342.46,314.248 322.5,349C 273.83,349.833 225.163,349.667 176.5,348.5C 178.765,342.204 180.932,335.871 183,329.5C 233.92,239.328 284.587,148.995 335,58.5C 334.23,52.1905 332.23,46.1905 329,40.5C 322.667,30.5 316.333,20.5 310,10.5C 309.503,7.85397 309.336,5.1873 309.5,2.5 Z"/></g>
<g><path style="opacity:0.992" fill="#fe0000" d="M 896.5,2.5 C 1065.17,2.16667 1233.83,2.50001 1402.5,3.5C 1339.26,118.984 1275.26,233.984 1210.5,348.5C 1160.83,349.833 1111.17,349.833 1061.5,348.5C 1080.91,312.007 1100.58,275.674 1120.5,239.5C 1113.33,239.167 1106.17,238.833 1099,238.5C 1057.83,239.386 1016.67,240.219 975.5,241C 973.1,241.186 970.766,241.686 968.5,242.5C 949.848,278.478 930.181,313.812 909.5,348.5C 860.833,349.833 812.167,349.833 763.5,348.5C 765.901,341.462 768.401,334.462 771,327.5C 821.587,237.995 871.92,148.328 922,58.5C 921.199,52.202 919.199,46.202 916,40.5C 909.272,30.7672 902.938,20.7672 897,10.5C 896.503,7.85397 896.336,5.1873 896.5,2.5 Z M 1053.5,90.5 C 1104.5,90.1667 1155.5,90.5001 1206.5,91.5C 1195.5,111.5 1184.5,131.5 1173.5,151.5C 1122.5,152.5 1071.5,152.833 1020.5,152.5C 1020.16,148.692 1020.66,145.026 1022,141.5C 1031.51,123.802 1042.01,106.802 1053.5,90.5 Z"/></g>
<g><path style="opacity:0.992" fill="#fe0000" d="M 1479.5,2.5 C 1708.83,2.33333 1938.17,2.5 2167.5,3C 2159.87,17.7555 2152.37,32.5889 2145,47.5C 2091.08,143.005 2037.41,238.672 1984,334.5C 1981.23,339.604 1978.06,344.437 1974.5,349C 1925.83,349.667 1877.17,349.667 1828.5,349C 1831.13,341.439 1833.97,333.939 1837,326.5C 1881.17,248.167 1925.33,169.833 1969.5,91.5C 1968,91.1667 1966.5,90.8333 1965,90.5C 1935.82,91.522 1906.65,92.8553 1877.5,94.5C 1829.88,179.577 1781.88,264.41 1733.5,349C 1685.17,349.5 1636.83,349.667 1588.5,349.5C 1590.71,339.698 1594.21,330.365 1599,321.5C 1641.91,244.671 1685.08,168.005 1728.5,91.5C 1727,91.1667 1725.5,90.8333 1724,90.5C 1694.93,91.5123 1665.93,92.8456 1637,94.5C 1589.42,179.329 1541.59,263.995 1493.5,348.5C 1444.84,349.5 1396.17,349.833 1347.5,349.5C 1349.44,341.195 1352.27,333.195 1356,325.5C 1406.25,236.662 1456.25,147.662 1506,58.5C 1504.83,52.3266 1502.83,46.3266 1500,40.5C 1493.08,30.3367 1486.42,20.0034 1480,9.5C 1479.5,7.19018 1479.34,4.85684 1479.5,2.5 Z"/></g>
<g><path style="opacity:0.99" fill="#fe0000" d="M 2247.5,2.5 C 2315.83,2.5 2384.17,2.5 2452.5,2.5C 2445.9,17.7103 2438.73,32.7103 2431,47.5C 2374.67,147.5 2318.33,247.5 2262,347.5C 2261.5,348 2261,348.5 2260.5,349C 2211.83,349.667 2163.17,349.667 2114.5,349C 2117.27,340.693 2120.44,332.526 2124,324.5C 2174.29,235.414 2224.46,146.248 2274.5,57C 2267.1,40.7016 2258.27,25.2016 2248,10.5C 2247.5,7.85397 2247.34,5.1873 2247.5,2.5 Z"/></g>
<g><path style="opacity:0.993" fill="#fe0000" d="M 2530.5,2.5 C 2597.17,2.1667 2663.84,2.50003 2730.5,3.5C 2738.67,19.8333 2746.83,36.1667 2755,52.5C 2770.14,86.77 2785.8,120.77 2802,154.5C 2831.23,104.257 2860.07,53.7574 2888.5,3C 2937.84,2.16671 2987.17,2.33338 3036.5,3.5C 2973.64,119.392 2909.64,234.559 2844.5,349C 2796.83,349.833 2749.16,349.667 2701.5,348.5C 2676.85,298.196 2653.01,247.529 2630,196.5C 2601.29,247.415 2572.46,298.248 2543.5,349C 2494.83,349.833 2446.16,349.667 2397.5,348.5C 2399.98,340.222 2403.15,332.222 2407,324.5C 2456.79,235.09 2506.95,145.924 2557.5,57C 2550.09,40.6695 2541.25,25.1695 2531,10.5C 2530.5,7.85397 2530.34,5.1873 2530.5,2.5 Z"/></g>
<g><path style="opacity:0.992" fill="#fe0000" d="M 3117.5,2.5 C 3286.17,2.16667 3454.83,2.50001 3623.5,3.5C 3602,43.1667 3580.5,82.8333 3559,122.5C 3516.75,197.995 3474.25,273.329 3431.5,348.5C 3381.83,349.833 3332.17,349.833 3282.5,348.5C 3301.91,312.007 3321.58,275.674 3341.5,239.5C 3334.33,239.167 3327.17,238.833 3320,238.5C 3278.83,239.386 3237.67,240.219 3196.5,241C 3194.1,241.186 3191.77,241.686 3189.5,242.5C 3170.72,278.563 3151.05,314.063 3130.5,349C 3081.83,349.833 3033.16,349.667 2984.5,348.5C 2986.77,342.204 2988.93,335.871 2991,329.5C 3041.92,239.328 3092.59,148.995 3143,58.5C 3142.2,52.202 3140.2,46.202 3137,40.5C 3130.67,30.5 3124.33,20.5 3118,10.5C 3117.5,7.85397 3117.34,5.1873 3117.5,2.5 Z M 3274.5,90.5 C 3325.5,90.1667 3376.5,90.5001 3427.5,91.5C 3416.5,111.5 3405.5,131.5 3394.5,151.5C 3343.5,152.5 3292.5,152.833 3241.5,152.5C 3241.34,149.482 3241.5,146.482 3242,143.5C 3251.84,125.137 3262.67,107.471 3274.5,90.5 Z"/></g>
<g><path style="opacity:0.992" fill="#fe0000" d="M 3700.5,2.5 C 3869.5,2.16667 4038.5,2.50001 4207.5,3.5C 4167.27,79.6313 4125.27,154.631 4081.5,228.5C 4064.51,229.499 4047.51,229.833 4030.5,229.5C 4033.94,269.435 4037.94,309.268 4042.5,349C 3992.83,349.5 3943.17,349.667 3893.5,349.5C 3888.58,310.485 3883.58,271.485 3878.5,232.5C 3845.49,232.167 3812.49,232.5 3779.5,233.5C 3758.23,272.09 3736.57,310.423 3714.5,348.5C 3665.83,349.833 3617.17,349.833 3568.5,348.5C 3570.9,341.462 3573.4,334.462 3576,327.5C 3626.59,237.995 3676.92,148.328 3727,58.5C 3726.2,52.202 3724.2,46.202 3721,40.5C 3714.08,30.3367 3707.42,20.0034 3701,9.5C 3700.5,7.19018 3700.34,4.85684 3700.5,2.5 Z M 3858.5,90.5 C 3909.17,90.3333 3959.83,90.5 4010.5,91C 4006.48,100.211 4002.31,109.378 3998,118.5C 3992.5,126.667 3987,134.833 3981.5,143C 3930.83,143.833 3880.16,143.667 3829.5,142.5C 3836.6,123.621 3846.27,106.288 3858.5,90.5 Z"/></g>
<g><path style="opacity:0.99" fill="#fe0000" d="M 4284.5,2.5 C 4353.17,2.1667 4421.84,2.50003 4490.5,3.5C 4483.33,17.8333 4476.17,32.1667 4469,46.5C 4412.42,147.329 4355.59,247.995 4298.5,348.5C 4249.84,349.5 4201.17,349.833 4152.5,349.5C 4154.44,341.195 4157.27,333.195 4161,325.5C 4210.75,236.338 4260.75,147.338 4311,58.5C 4309.97,53.0721 4308.3,47.7387 4306,42.5C 4299,31.5 4292,20.5 4285,9.5C 4284.5,7.19018 4284.34,4.85684 4284.5,2.5 Z"/></g>
<g><path style="opacity:1" fill="#fefbfb" d="M 166.5,3.5 C 167.559,5.72602 167.392,8.05935 166,10.5C 144.73,56.3711 124.563,102.704 105.5,149.5C 105.775,151.609 106.942,152.942 109,153.5C 136.607,147.139 164.44,142.139 192.5,138.5C 192.66,140.199 192.494,141.866 192,143.5C 162.108,172.714 134.441,203.714 109,236.5C 88.1776,257.314 68.8443,279.314 51,302.5C 36.033,319.135 20.6997,335.468 5,351.5C 4.47954,349.711 4.81288,348.044 6,346.5C 12.6667,335.167 19.3333,323.833 26,312.5C 44.7087,275.498 63.8753,238.831 83.5,202.5C 83.0291,199.698 81.3625,198.364 78.5,198.5C 54.2159,201.54 29.8826,204.207 5.5,206.5C 5.33982,204.801 5.50649,203.134 6,201.5C 28.439,176.598 49.439,150.598 69,123.5C 102.53,84.1567 135.03,44.1567 166.5,3.5 Z"/></g>
<g><path style="opacity:0.7" fill="#ff0e0a" d="M 4662.5,145.5 C 4662.5,149.833 4662.5,154.167 4662.5,158.5C 4643.63,180.213 4624.13,201.547 4604,222.5C 4603.67,223.5 4603.33,224.5 4603,225.5C 4594.62,234.875 4586.62,244.542 4579,254.5C 4556.14,277.019 4535.14,301.019 4516,326.5C 4502.96,340.036 4490.13,353.703 4477.5,367.5C 4473.17,367.5 4468.83,367.5 4464.5,367.5C 4463.96,362.515 4464.79,357.849 4467,353.5C 4473.33,343.167 4479.67,332.833 4486,322.5C 4501.37,293.056 4516.37,263.39 4531,233.5C 4534.72,228.637 4537.89,223.47 4540.5,218C 4539.06,216.936 4537.39,216.436 4535.5,216.5C 4523.99,217.65 4512.66,219.484 4501.5,222C 4490.1,222.199 4478.77,223.033 4467.5,224.5C 4467.21,218.755 4467.71,213.088 4469,207.5C 4489.12,185.226 4507.79,161.893 4525,137.5C 4559.92,95.9127 4594.09,53.7461 4627.5,11C 4634.61,8.46265 4638.28,10.796 4638.5,18C 4638.24,20.5472 4637.74,23.0472 4637,25.5C 4617.35,68.9308 4598.19,112.597 4579.5,156.5C 4580.03,158.916 4581.03,159.083 4582.5,157C 4600,154.099 4617.34,150.766 4634.5,147C 4643.86,146.721 4653.19,146.221 4662.5,145.5 Z"/></g>
<g><path style="opacity:1" fill="#ffb2b0" d="M 4630.5,22.5 C 4629.13,26.0781 4627.46,29.4114 4625.5,32.5C 4625.5,31.1667 4625.5,29.8333 4625.5,28.5C 4625.93,24.9756 4627.43,21.9756 4630,19.5C 4630.48,20.448 4630.65,21.448 4630.5,22.5 Z"/></g>
<g><path style="opacity:1" fill="#ff8c88" d="M 4630.5,22.5 C 4630.65,21.448 4630.48,20.448 4630,19.5C 4627.43,21.9756 4625.93,24.9756 4625.5,28.5C 4621.17,33.8333 4616.83,39.1667 4612.5,44.5C 4610.43,45.2995 4608.76,46.6329 4607.5,48.5C 4608.95,44.5276 4611.45,41.1943 4615,38.5C 4617.93,32.3703 4621.6,26.7036 4626,21.5C 4630.18,15.8903 4631.68,16.2237 4630.5,22.5 Z"/></g>
<g><path style="opacity:1" fill="#fefcfc" d="M 4625.5,28.5 C 4625.5,29.8333 4625.5,31.1667 4625.5,32.5C 4623.65,35.54 4622.32,38.8733 4621.5,42.5C 4619.82,43.1834 4619.16,44.5168 4619.5,46.5C 4617.82,47.1834 4617.16,48.5168 4617.5,50.5C 4615.82,51.1834 4615.16,52.5168 4615.5,54.5C 4613.82,55.1834 4613.16,56.5168 4613.5,58.5C 4613.5,59.1667 4613.5,59.8333 4613.5,60.5C 4611.82,61.1834 4611.16,62.5168 4611.5,64.5C 4609.82,65.1834 4609.16,66.5168 4609.5,68.5C 4607.82,69.1834 4607.16,70.5168 4607.5,72.5C 4605.82,73.1834 4605.16,74.5168 4605.5,76.5C 4605.5,77.1667 4605.5,77.8333 4605.5,78.5C 4603.82,79.1834 4603.16,80.5168 4603.5,82.5C 4601.82,83.1834 4601.16,84.5168 4601.5,86.5C 4599.82,87.1834 4599.16,88.5168 4599.5,90.5C 4597.82,91.1834 4597.16,92.5168 4597.5,94.5C 4597.5,95.1667 4597.5,95.8333 4597.5,96.5C 4595.82,97.1834 4595.16,98.5168 4595.5,100.5C 4593.82,101.183 4593.16,102.517 4593.5,104.5C 4591.82,105.183 4591.16,106.517 4591.5,108.5C 4591.5,109.167 4591.5,109.833 4591.5,110.5C 4589.82,111.183 4589.16,112.517 4589.5,114.5C 4587.82,115.183 4587.16,116.517 4587.5,118.5C 4585.82,119.183 4585.16,120.517 4585.5,122.5C 4585.5,123.167 4585.5,123.833 4585.5,124.5C 4583.82,125.183 4583.16,126.517 4583.5,128.5C 4581.82,129.183 4581.16,130.517 4581.5,132.5C 4579.82,133.183 4579.16,134.517 4579.5,136.5C 4579.5,137.167 4579.5,137.833 4579.5,138.5C 4577.82,139.183 4577.16,140.517 4577.5,142.5C 4575.82,143.183 4575.16,144.517 4575.5,146.5C 4574.54,148.302 4573.88,150.302 4573.5,152.5C 4571.82,153.183 4571.16,154.517 4571.5,156.5C 4570.25,157.334 4569.59,158.667 4569.5,160.5C 4569.51,162.045 4569.84,163.378 4570.5,164.5C 4570.41,165.496 4570.75,166.329 4571.5,167C 4574.17,167.667 4576.83,167.667 4579.5,167C 4586.51,165.732 4593.51,164.399 4600.5,163C 4603.82,162.246 4606.82,161.08 4609.5,159.5C 4614.65,158.134 4619.98,157.134 4625.5,156.5C 4629.68,156.149 4633.68,155.482 4637.5,154.5C 4643.32,153.349 4648.98,153.349 4654.5,154.5C 4649.54,158.963 4644.7,163.63 4640,168.5C 4639.51,169.793 4639.34,171.127 4639.5,172.5C 4638.76,172.369 4638.09,172.536 4637.5,173C 4630.9,179.09 4624.9,185.59 4619.5,192.5C 4617.45,194.55 4615.79,196.883 4614.5,199.5C 4614.5,200.167 4614.17,200.5 4613.5,200.5C 4607.93,204.567 4602.76,209.234 4598,214.5C 4597.51,215.793 4597.34,217.127 4597.5,218.5C 4592.94,220.383 4590.28,223.717 4589.5,228.5C 4584.29,231.032 4580.96,235.032 4579.5,240.5C 4575.59,241.744 4573.59,244.411 4573.5,248.5C 4561.93,259.736 4550.26,271.069 4538.5,282.5C 4537.57,283.689 4537.24,285.022 4537.5,286.5C 4533.68,288.982 4531.01,292.316 4529.5,296.5C 4526.58,298.912 4523.75,301.579 4521,304.5C 4520.51,305.793 4520.34,307.127 4520.5,308.5C 4520.17,308.5 4519.83,308.5 4519.5,308.5C 4516.33,310.332 4514.33,312.999 4513.5,316.5C 4505.25,324.249 4497.08,332.249 4489,340.5C 4488.51,341.793 4488.34,343.127 4488.5,344.5C 4487.76,344.369 4487.09,344.536 4486.5,345C 4483.88,347.739 4481.38,350.573 4479,353.5C 4480.28,348.941 4482.11,344.607 4484.5,340.5C 4487.71,336.306 4490.37,331.639 4492.5,326.5C 4494.09,325.652 4495.26,324.319 4496,322.5C 4500.1,313.198 4504.77,304.198 4510,295.5C 4510.49,293.866 4510.66,292.199 4510.5,290.5C 4511.81,288.54 4513.14,286.54 4514.5,284.5C 4516.09,283.652 4517.26,282.319 4518,280.5C 4527.24,260.776 4537.24,241.443 4548,222.5C 4548.8,219.304 4548.64,216.304 4547.5,213.5C 4545.89,212.308 4544.22,211.308 4542.5,210.5C 4539.35,209.835 4536.02,209.502 4532.5,209.5C 4524.32,210.243 4516.32,211.243 4508.5,212.5C 4504.96,212.753 4501.63,213.419 4498.5,214.5C 4490.86,215.525 4483.19,215.691 4475.5,215C 4479.56,208.93 4484.4,203.43 4490,198.5C 4491.44,197.1 4492.27,195.433 4492.5,193.5C 4496.97,190.367 4500.31,186.367 4502.5,181.5C 4504.14,179.699 4505.97,178.033 4508,176.5C 4513.99,166.699 4520.49,157.366 4527.5,148.5C 4527.5,147.833 4527.5,147.167 4527.5,146.5C 4529.17,144.167 4531.17,142.167 4533.5,140.5C 4536.8,136.859 4540.14,133.192 4543.5,129.5C 4543.5,129.167 4543.5,128.833 4543.5,128.5C 4546.8,124.859 4550.14,121.192 4553.5,117.5C 4553.5,116.5 4553.5,115.5 4553.5,114.5C 4553.83,114.5 4554.17,114.5 4554.5,114.5C 4554.83,114.5 4555.17,114.5 4555.5,114.5C 4558.14,111.526 4560.8,108.526 4563.5,105.5C 4563.5,105.167 4563.5,104.833 4563.5,104.5C 4567.65,102.855 4570.15,99.855 4571,95.5C 4576.5,92.0067 4580.5,87.3401 4583,81.5C 4584.33,79.34 4585.83,77.34 4587.5,75.5C 4587.5,75.1667 4587.5,74.8333 4587.5,74.5C 4590.8,70.8592 4594.14,67.1925 4597.5,63.5C 4597.5,63.1667 4597.5,62.8333 4597.5,62.5C 4603.26,57.0777 4608.26,51.0777 4612.5,44.5C 4616.83,39.1667 4621.17,33.8333 4625.5,28.5 Z"/></g>
<g><path style="opacity:1" fill="#ff817e" d="M 4621.5,42.5 C 4621.84,44.4832 4621.18,45.8166 4619.5,46.5C 4619.16,44.5168 4619.82,43.1834 4621.5,42.5 Z"/></g>
<g><path style="opacity:1" fill="#ff8380" d="M 4619.5,46.5 C 4619.84,48.4832 4619.18,49.8166 4617.5,50.5C 4617.16,48.5168 4617.82,47.1834 4619.5,46.5 Z"/></g>
<g><path style="opacity:1" fill="#ff8380" d="M 4617.5,50.5 C 4617.84,52.4832 4617.18,53.8166 4615.5,54.5C 4615.16,52.5168 4615.82,51.1834 4617.5,50.5 Z"/></g>
<g><path style="opacity:1" fill="#feb1b1" d="M 4612.5,44.5 C 4608.26,51.0777 4603.26,57.0777 4597.5,62.5C 4597.5,61.8333 4597.5,61.1667 4597.5,60.5C 4600.87,57.1294 4603.87,53.4627 4606.5,49.5C 4606.5,48.8333 4606.83,48.5 4607.5,48.5C 4608.76,46.6329 4610.43,45.2995 4612.5,44.5 Z"/></g>
<g><path style="opacity:1" fill="#ff8582" d="M 4615.5,54.5 C 4615.84,56.4832 4615.18,57.8166 4613.5,58.5C 4613.16,56.5168 4613.82,55.1834 4615.5,54.5 Z"/></g>
<g><path style="opacity:1" fill="#ff6462" d="M 4606.5,49.5 C 4603.87,53.4627 4600.87,57.1294 4597.5,60.5C 4599.33,55.9879 4602.33,52.3212 4606.5,49.5 Z"/></g>
<g><path style="opacity:1" fill="#ff8481" d="M 4613.5,60.5 C 4613.84,62.4832 4613.18,63.8166 4611.5,64.5C 4611.16,62.5168 4611.82,61.1834 4613.5,60.5 Z"/></g>
<g><path style="opacity:1" fill="#feb2b2" d="M 4597.5,63.5 C 4594.14,67.1925 4590.8,70.8592 4587.5,74.5C 4587.5,73.8333 4587.5,73.1667 4587.5,72.5C 4590.21,68.7946 4593.54,65.7946 4597.5,63.5 Z"/></g>
<g><path style="opacity:1" fill="#ff8582" d="M 4611.5,64.5 C 4611.84,66.4832 4611.18,67.8166 4609.5,68.5C 4609.16,66.5168 4609.82,65.1834 4611.5,64.5 Z"/></g>
<g><path style="opacity:1" fill="#ff6361" d="M 4597.5,60.5 C 4597.5,61.1667 4597.5,61.8333 4597.5,62.5C 4597.5,62.8333 4597.5,63.1667 4597.5,63.5C 4593.54,65.7946 4590.21,68.7946 4587.5,72.5C 4589.67,67.6499 4593.01,63.6499 4597.5,60.5 Z"/></g>
<g><path style="opacity:1" fill="#ff8583" d="M 4609.5,68.5 C 4609.84,70.4832 4609.18,71.8166 4607.5,72.5C 4607.16,70.5168 4607.82,69.1834 4609.5,68.5 Z"/></g>
<g><path style="opacity:1" fill="#ff8885" d="M 4607.5,72.5 C 4607.84,74.4832 4607.18,75.8166 4605.5,76.5C 4605.16,74.5168 4605.82,73.1834 4607.5,72.5 Z"/></g>
<g><path style="opacity:1" fill="#ff6462" d="M 4587.5,72.5 C 4587.5,73.1667 4587.5,73.8333 4587.5,74.5C 4587.5,74.8333 4587.5,75.1667 4587.5,75.5C 4584.89,76.4499 4582.89,78.1165 4581.5,80.5C 4582.31,77.0105 4584.31,74.3438 4587.5,72.5 Z"/></g>
<g><path style="opacity:1" fill="#ff8683" d="M 4605.5,78.5 C 4605.84,80.4832 4605.18,81.8166 4603.5,82.5C 4603.16,80.5168 4603.82,79.1834 4605.5,78.5 Z"/></g>
<g><path style="opacity:1" fill="#ff8785" d="M 4603.5,82.5 C 4603.84,84.4832 4603.18,85.8166 4601.5,86.5C 4601.16,84.5168 4601.82,83.1834 4603.5,82.5 Z"/></g>
<g><path style="opacity:1" fill="#ff6765" d="M 4581.5,80.5 C 4578.25,85.0927 4574.58,89.426 4570.5,93.5C 4573.05,88.2814 4576.71,83.9481 4581.5,80.5 Z"/></g>
<g><path style="opacity:1" fill="#ff8885" d="M 4601.5,86.5 C 4601.84,88.4832 4601.18,89.8166 4599.5,90.5C 4599.16,88.5168 4599.82,87.1834 4601.5,86.5 Z"/></g>
<g><path style="opacity:1" fill="#ff8987" d="M 4599.5,90.5 C 4599.84,92.4832 4599.18,93.8166 4597.5,94.5C 4597.16,92.5168 4597.82,91.1834 4599.5,90.5 Z"/></g>
<g><path style="opacity:1" fill="#ff8986" d="M 4597.5,96.5 C 4597.84,98.4832 4597.18,99.8166 4595.5,100.5C 4595.16,98.5168 4595.82,97.1834 4597.5,96.5 Z"/></g>
<g><path style="opacity:1" fill="#ff615f" d="M 4569.5,94.5 C 4567.93,97.417 4565.93,100.084 4563.5,102.5C 4564.31,99.0105 4566.31,96.3438 4569.5,94.5 Z"/></g>
<g><path style="opacity:1" fill="#ffcfce" d="M 4587.5,75.5 C 4585.83,77.34 4584.33,79.34 4583,81.5C 4580.5,87.3401 4576.5,92.0067 4571,95.5C 4570.15,99.855 4567.65,102.855 4563.5,104.5C 4563.5,103.833 4563.5,103.167 4563.5,102.5C 4565.93,100.084 4567.93,97.417 4569.5,94.5C 4570.17,94.5 4570.5,94.1667 4570.5,93.5C 4574.58,89.426 4578.25,85.0927 4581.5,80.5C 4582.89,78.1165 4584.89,76.4499 4587.5,75.5 Z"/></g>
<g><path style="opacity:1" fill="#ff8a87" d="M 4595.5,100.5 C 4595.84,102.483 4595.18,103.817 4593.5,104.5C 4593.16,102.517 4593.82,101.183 4595.5,100.5 Z"/></g>
<g><path style="opacity:1" fill="#ff8b89" d="M 4593.5,104.5 C 4593.84,106.483 4593.18,107.817 4591.5,108.5C 4591.16,106.517 4591.82,105.183 4593.5,104.5 Z"/></g>
<g><path style="opacity:1" fill="#ff6563" d="M 4563.5,102.5 C 4563.5,103.167 4563.5,103.833 4563.5,104.5C 4563.5,104.833 4563.5,105.167 4563.5,105.5C 4559.44,107.233 4556.77,110.233 4555.5,114.5C 4555.17,114.5 4554.83,114.5 4554.5,114.5C 4555.88,109.428 4558.88,105.428 4563.5,102.5 Z"/></g>
<g><path style="opacity:1" fill="#feadad" d="M 4563.5,105.5 C 4560.8,108.526 4558.14,111.526 4555.5,114.5C 4556.77,110.233 4559.44,107.233 4563.5,105.5 Z"/></g>
<g><path style="opacity:1" fill="#ff8b88" d="M 4591.5,110.5 C 4591.84,112.483 4591.18,113.817 4589.5,114.5C 4589.16,112.517 4589.82,111.183 4591.5,110.5 Z"/></g>
<g><path style="opacity:1" fill="#ff8b89" d="M 4589.5,114.5 C 4589.84,116.483 4589.18,117.817 4587.5,118.5C 4587.16,116.517 4587.82,115.183 4589.5,114.5 Z"/></g>
<g><path style="opacity:1" fill="#fea8a7" d="M 4553.5,117.5 C 4550.14,121.192 4546.8,124.859 4543.5,128.5C 4543.5,127.833 4543.5,127.167 4543.5,126.5C 4546.21,122.795 4549.54,119.795 4553.5,117.5 Z"/></g>
<g><path style="opacity:1" fill="#ff8d8b" d="M 4587.5,118.5 C 4587.84,120.483 4587.18,121.817 4585.5,122.5C 4585.16,120.517 4585.82,119.183 4587.5,118.5 Z"/></g>
<g><path style="opacity:1" fill="#ff5b59" d="M 4553.5,114.5 C 4553.5,115.5 4553.5,116.5 4553.5,117.5C 4549.54,119.795 4546.21,122.795 4543.5,126.5C 4545.67,121.65 4549.01,117.65 4553.5,114.5 Z"/></g>
<g><path style="opacity:1" fill="#ff8c8a" d="M 4585.5,124.5 C 4585.84,126.483 4585.18,127.817 4583.5,128.5C 4583.16,126.517 4583.82,125.183 4585.5,124.5 Z"/></g>
<g><path style="opacity:1" fill="#ff8d8b" d="M 4583.5,128.5 C 4583.84,130.483 4583.18,131.817 4581.5,132.5C 4581.16,130.517 4581.82,129.183 4583.5,128.5 Z"/></g>
<g><path style="opacity:1" fill="#ff5b59" d="M 4543.5,126.5 C 4543.5,127.167 4543.5,127.833 4543.5,128.5C 4543.5,128.833 4543.5,129.167 4543.5,129.5C 4539.54,131.795 4536.21,134.795 4533.5,138.5C 4535.67,133.65 4539.01,129.65 4543.5,126.5 Z"/></g>
<g><path style="opacity:1" fill="#fea7a7" d="M 4543.5,129.5 C 4540.14,133.192 4536.8,136.859 4533.5,140.5C 4533.5,139.833 4533.5,139.167 4533.5,138.5C 4536.21,134.795 4539.54,131.795 4543.5,129.5 Z"/></g>
<g><path style="opacity:1" fill="#ff8f8d" d="M 4581.5,132.5 C 4581.84,134.483 4581.18,135.817 4579.5,136.5C 4579.16,134.517 4579.82,133.183 4581.5,132.5 Z"/></g>
<g><path style="opacity:1" fill="#ff8e8c" d="M 4579.5,138.5 C 4579.84,140.483 4579.18,141.817 4577.5,142.5C 4577.16,140.517 4577.82,139.183 4579.5,138.5 Z"/></g>
<g><path style="opacity:1" fill="#ff5956" d="M 4533.5,138.5 C 4533.5,139.167 4533.5,139.833 4533.5,140.5C 4531.17,142.167 4529.17,144.167 4527.5,146.5C 4528.31,143.011 4530.31,140.344 4533.5,138.5 Z"/></g>
<g><path style="opacity:1" fill="#ff8f8d" d="M 4577.5,142.5 C 4577.84,144.483 4577.18,145.817 4575.5,146.5C 4575.16,144.517 4575.82,143.183 4577.5,142.5 Z"/></g>
<g><path style="opacity:1" fill="#ff605e" d="M 4527.5,146.5 C 4527.5,147.167 4527.5,147.833 4527.5,148.5C 4524.94,150.64 4522.61,152.973 4520.5,155.5C 4521.69,151.637 4524.03,148.637 4527.5,146.5 Z"/></g>
<g><path style="opacity:1" fill="#ffaead" d="M 4655.5,154.5 C 4655.17,154.5 4654.83,154.5 4654.5,154.5C 4648.98,153.349 4643.32,153.349 4637.5,154.5C 4640.09,153.184 4643.09,152.517 4646.5,152.5C 4649.91,152.517 4652.91,153.184 4655.5,154.5 Z"/></g>
<g><path style="opacity:1" fill="#ff908e" d="M 4573.5,152.5 C 4573.84,154.483 4573.18,155.817 4571.5,156.5C 4571.16,154.517 4571.82,153.183 4573.5,152.5 Z"/></g>
<g><path style="opacity:1" fill="#ff9997" d="M 4637.5,154.5 C 4633.68,155.482 4629.68,156.149 4625.5,156.5C 4629.03,154.577 4633.03,153.911 4637.5,154.5 Z"/></g>
<g><path style="opacity:1" fill="#ff9493" d="M 4571.5,156.5 C 4571.17,159.167 4570.83,161.833 4570.5,164.5C 4569.84,163.378 4569.51,162.045 4569.5,160.5C 4569.59,158.667 4570.25,157.334 4571.5,156.5 Z"/></g>
<g><path style="opacity:1" fill="#ff8f8b" d="M 4527.5,148.5 C 4520.49,157.366 4513.99,166.699 4508,176.5C 4505.97,178.033 4504.14,179.699 4502.5,181.5C 4499.53,185.14 4496.19,188.473 4492.5,191.5C 4501.88,179.337 4511.21,167.337 4520.5,155.5C 4522.61,152.973 4524.94,150.64 4527.5,148.5 Z"/></g>
<g><path style="opacity:1" fill="#ff6969" d="M 4654.5,154.5 C 4654.83,154.5 4655.17,154.5 4655.5,154.5C 4651.65,161.031 4646.65,166.698 4640.5,171.5C 4645.17,165.833 4649.83,160.167 4654.5,154.5 Z"/></g>
<g><path style="opacity:1" fill="#ffbfbe" d="M 4609.5,159.5 C 4606.82,161.08 4603.82,162.246 4600.5,163C 4593.51,164.399 4586.51,165.732 4579.5,167C 4576.83,167.667 4574.17,167.667 4571.5,167C 4570.75,166.329 4570.41,165.496 4570.5,164.5C 4571.53,165.355 4572.7,166.022 4574,166.5C 4585.7,163.405 4597.54,161.072 4609.5,159.5 Z"/></g>
<g><path style="opacity:1" fill="#feb2b2" d="M 4654.5,154.5 C 4649.83,160.167 4645.17,165.833 4640.5,171.5C 4640.5,172.167 4640.17,172.5 4639.5,172.5C 4639.34,171.127 4639.51,169.793 4640,168.5C 4644.7,163.63 4649.54,158.963 4654.5,154.5 Z"/></g>
<g><path style="opacity:1" fill="#feb4b4" d="M 4639.5,172.5 C 4638.89,173.391 4638.56,174.391 4638.5,175.5C 4631.89,180.774 4625.56,186.44 4619.5,192.5C 4624.9,185.59 4630.9,179.09 4637.5,173C 4638.09,172.536 4638.76,172.369 4639.5,172.5 Z"/></g>
<g><path style="opacity:1" fill="#feb9b8" d="M 4502.5,181.5 C 4500.31,186.367 4496.97,190.367 4492.5,193.5C 4492.5,193.167 4492.5,192.833 4492.5,192.5C 4492.5,192.167 4492.5,191.833 4492.5,191.5C 4496.19,188.473 4499.53,185.14 4502.5,181.5 Z"/></g>
<g><path style="opacity:1" fill="#ff6f6e" d="M 4638.5,175.5 C 4630.78,183.887 4622.78,191.887 4614.5,199.5C 4615.79,196.883 4617.45,194.55 4619.5,192.5C 4625.56,186.44 4631.89,180.774 4638.5,175.5 Z"/></g>
<g><path style="opacity:1" fill="#ff6f6d" d="M 4492.5,192.5 C 4492.5,192.833 4492.5,193.167 4492.5,193.5C 4488.86,197.806 4484.86,201.806 4480.5,205.5C 4483.09,201.728 4485.93,198.061 4489,194.5C 4489.82,193.177 4490.98,192.511 4492.5,192.5 Z"/></g>
<g><path style="opacity:1" fill="#feb8b8" d="M 4613.5,200.5 C 4612.89,201.391 4612.56,202.391 4612.5,203.5C 4606.83,207.167 4602.17,211.833 4598.5,217.5C 4598.5,218.167 4598.17,218.5 4597.5,218.5C 4597.34,217.127 4597.51,215.793 4598,214.5C 4602.76,209.234 4607.93,204.567 4613.5,200.5 Z"/></g>
<g><path style="opacity:1" fill="#ff7070" d="M 4612.5,203.5 C 4608.17,208.5 4603.5,213.167 4598.5,217.5C 4602.17,211.833 4606.83,207.167 4612.5,203.5 Z"/></g>
<g><path style="opacity:1" fill="#ffb6b5" d="M 4542.5,210.5 C 4531.28,211.643 4519.95,212.309 4508.5,212.5C 4516.32,211.243 4524.32,210.243 4532.5,209.5C 4536.02,209.502 4539.35,209.835 4542.5,210.5 Z"/></g>
<g><path style="opacity:1" fill="#ffa9a8" d="M 4508.5,212.5 C 4508.39,213.117 4508.06,213.617 4507.5,214C 4504.52,214.498 4501.52,214.665 4498.5,214.5C 4501.63,213.419 4504.96,212.753 4508.5,212.5 Z"/></g>
<g><path style="opacity:1" fill="#ffacaa" d="M 4492.5,193.5 C 4492.27,195.433 4491.44,197.1 4490,198.5C 4484.4,203.43 4479.56,208.93 4475.5,215C 4483.19,215.691 4490.86,215.525 4498.5,214.5C 4490.9,216.467 4482.9,217.134 4474.5,216.5C 4474.34,214.801 4474.51,213.134 4475,211.5C 4477.07,209.604 4478.9,207.604 4480.5,205.5C 4484.86,201.806 4488.86,197.806 4492.5,193.5 Z"/></g>
<g><path style="opacity:1" fill="#ffa8a6" d="M 4597.5,218.5 C 4595.97,222.701 4593.3,226.034 4589.5,228.5C 4590.28,223.717 4592.94,220.383 4597.5,218.5 Z"/></g>
<g><path style="opacity:1" fill="#febcbc" d="M 4589.5,228.5 C 4588.89,229.391 4588.56,230.391 4588.5,231.5C 4584.83,233.167 4582.17,235.833 4580.5,239.5C 4580.5,240.167 4580.17,240.5 4579.5,240.5C 4580.96,235.032 4584.29,231.032 4589.5,228.5 Z"/></g>
<g><path style="opacity:1" fill="#fe7776" d="M 4588.5,231.5 C 4586.17,234.5 4583.5,237.167 4580.5,239.5C 4582.17,235.833 4584.83,233.167 4588.5,231.5 Z"/></g>
<g><path style="opacity:1" fill="#ffaaa8" d="M 4579.5,240.5 C 4578.65,244.017 4576.65,246.684 4573.5,248.5C 4573.59,244.411 4575.59,241.744 4579.5,240.5 Z"/></g>
<g><path style="opacity:1" fill="#ff5452" d="M 4570.5,254.5 C 4560.5,265.167 4550.17,275.5 4539.5,285.5C 4548.58,274.92 4558.24,264.754 4568.5,255C 4569.09,254.536 4569.76,254.369 4570.5,254.5 Z"/></g>
<g><path style="opacity:1" fill="#ff9d9b" d="M 4547.5,213.5 C 4548.64,216.304 4548.8,219.304 4548,222.5C 4537.24,241.443 4527.24,260.776 4518,280.5C 4517.26,282.319 4516.09,283.652 4514.5,284.5C 4523.79,263.249 4534.13,242.582 4545.5,222.5C 4546.68,219.609 4547.34,216.609 4547.5,213.5 Z"/></g>
<g><path style="opacity:1" fill="#ff9f9e" d="M 4573.5,248.5 C 4573.38,250.947 4572.38,252.947 4570.5,254.5C 4569.76,254.369 4569.09,254.536 4568.5,255C 4558.24,264.754 4548.58,274.92 4539.5,285.5C 4539.5,286.167 4539.17,286.5 4538.5,286.5C 4538.17,286.5 4537.83,286.5 4537.5,286.5C 4537.24,285.022 4537.57,283.689 4538.5,282.5C 4550.26,271.069 4561.93,259.736 4573.5,248.5 Z"/></g>
<g><path style="opacity:1" fill="#ff6866" d="M 4514.5,284.5 C 4513.14,286.54 4511.81,288.54 4510.5,290.5C 4509.89,287.122 4511.22,285.122 4514.5,284.5 Z"/></g>
<g><path style="opacity:1" fill="#feadac" d="M 4537.5,286.5 C 4535.09,289.888 4532.76,293.221 4530.5,296.5C 4530.17,296.5 4529.83,296.5 4529.5,296.5C 4531.01,292.316 4533.68,288.982 4537.5,286.5 Z"/></g>
<g><path style="opacity:1" fill="#ff5f5d" d="M 4537.5,286.5 C 4537.83,286.5 4538.17,286.5 4538.5,286.5C 4537.01,290.673 4534.34,294.006 4530.5,296.5C 4532.76,293.221 4535.09,289.888 4537.5,286.5 Z"/></g>
<g><path style="opacity:1" fill="#ff5d5c" d="M 4529.5,296.5 C 4529.83,296.5 4530.17,296.5 4530.5,296.5C 4528.67,301.012 4525.67,304.679 4521.5,307.5C 4524.14,303.852 4526.81,300.185 4529.5,296.5 Z"/></g>
<g><path style="opacity:1" fill="#fea0a0" d="M 4529.5,296.5 C 4526.81,300.185 4524.14,303.852 4521.5,307.5C 4521.5,308.167 4521.17,308.5 4520.5,308.5C 4520.34,307.127 4520.51,305.793 4521,304.5C 4523.75,301.579 4526.58,298.912 4529.5,296.5 Z"/></g>
<g><path style="opacity:1" fill="#ffabaa" d="M 4519.5,308.5 C 4517.77,311.21 4516.1,313.876 4514.5,316.5C 4514.17,316.5 4513.83,316.5 4513.5,316.5C 4514.33,312.999 4516.33,310.332 4519.5,308.5 Z"/></g>
<g><path style="opacity:1" fill="#ff9593" d="M 4510.5,290.5 C 4510.66,292.199 4510.49,293.866 4510,295.5C 4504.77,304.198 4500.1,313.198 4496,322.5C 4495.26,324.319 4494.09,325.652 4492.5,326.5C 4497.04,315.753 4501.87,305.086 4507,294.5C 4508.4,293.269 4509.57,291.936 4510.5,290.5 Z"/></g>
<g><path style="opacity:1" fill="#fea7a7" d="M 4513.5,316.5 C 4505.48,325.52 4497.48,334.52 4489.5,343.5C 4489.5,344.167 4489.17,344.5 4488.5,344.5C 4488.34,343.127 4488.51,341.793 4489,340.5C 4497.08,332.249 4505.25,324.249 4513.5,316.5 Z"/></g>
<g><path style="opacity:1" fill="#ff5f5e" d="M 4513.5,316.5 C 4513.83,316.5 4514.17,316.5 4514.5,316.5C 4514.65,317.552 4514.48,318.552 4514,319.5C 4505.96,327.702 4497.8,335.702 4489.5,343.5C 4497.48,334.52 4505.48,325.52 4513.5,316.5 Z"/></g>
<g><path style="opacity:1" fill="#ff8683" d="M 4492.5,326.5 C 4490.37,331.639 4487.71,336.306 4484.5,340.5C 4485.7,336.428 4487.2,332.428 4489,328.5C 4489.82,327.177 4490.98,326.511 4492.5,326.5 Z"/></g>
<g><path style="opacity:1" fill="#ff8e8c" d="M 4484.5,340.5 C 4482.11,344.607 4480.28,348.941 4479,353.5C 4481.38,350.573 4483.88,347.739 4486.5,345C 4487.09,344.536 4487.76,344.369 4488.5,344.5C 4487.89,345.391 4487.56,346.391 4487.5,347.5C 4486.76,347.369 4486.09,347.536 4485.5,348C 4482.48,352.018 4479.15,355.684 4475.5,359C 4473.24,359.207 4472.91,358.374 4474.5,356.5C 4476.81,351.886 4479.14,347.22 4481.5,342.5C 4482.27,341.388 4483.27,340.721 4484.5,340.5 Z"/></g>
<g><path style="opacity:1" fill="#ff514d" d="M 4487.5,347.5 C 4483.16,353.169 4478.16,358.169 4472.5,362.5C 4472.17,362 4471.83,361.5 4471.5,361C 4471.7,358.815 4472.7,357.315 4474.5,356.5C 4472.91,358.374 4473.24,359.207 4475.5,359C 4479.15,355.684 4482.48,352.018 4485.5,348C 4486.09,347.536 4486.76,347.369 4487.5,347.5 Z"/></g>
</svg>
